<svg viewBox="0 0 1200 460" xmlns="http://www.w3.org/2000/svg" width="1200" height="460">
  <defs>
    <radialGradient id="bg1" cx="50%" cy="50%" r="70%"><stop offset="0%" stop-color="#a855f7" stop-opacity="0.08"/><stop offset="100%" stop-color="#05020d" stop-opacity="1"/></radialGradient>
    <radialGradient id="glow1" cx="50%" cy="50%" r="50%"><stop offset="0%" stop-color="#a855f7" stop-opacity="0.18"/><stop offset="100%" stop-color="#a855f7" stop-opacity="0"/></radialGradient>
    <radialGradient id="glow2" cx="50%" cy="50%" r="50%"><stop offset="0%" stop-color="#00e0ff" stop-opacity="0.14"/><stop offset="100%" stop-color="#00e0ff" stop-opacity="0"/></radialGradient>
    <filter id="blur1"><feGaussianBlur stdDeviation="40"/></filter>
    <filter id="blur2"><feGaussianBlur stdDeviation="60"/></filter>
    <linearGradient id="fade" x1="0%" y1="0%" x2="0%" y2="100%"><stop offset="0%" stop-color="#05020d" stop-opacity="0.1"/><stop offset="100%" stop-color="#05020d" stop-opacity="0.9"/></linearGradient>
    <style>@keyframes p1{0%,100%{opacity:.6}50%{opacity:1}}@keyframes p2{0%,100%{opacity:.4}50%{opacity:.8}}@keyframes dr{0%,100%{transform:translate(0,0)}50%{transform:translate(-2px,3px)}}.g1{animation:p1 4s ease-in-out infinite}.g2{animation:p2 7s ease-in-out infinite 0.18s}.dr{animation:dr 6s ease-in-out infinite}</style>
  </defs>
  <rect width="1200" height="460" fill="#05020d"/>
  <rect width="1200" height="460" fill="url(#bg1)"/>
  <ellipse cx="600" cy="230" rx="560" ry="224" fill="none" stroke="#a855f7" stroke-opacity="0.12" stroke-width="1"/><ellipse cx="600" cy="230" rx="490" ry="196" fill="none" stroke="#a855f7" stroke-opacity="0.11000000000000001" stroke-width="1"/><ellipse cx="600" cy="230" rx="420" ry="168" fill="none" stroke="#a855f7" stroke-opacity="0.1" stroke-width="1"/><ellipse cx="600" cy="230" rx="350" ry="140" fill="none" stroke="#a855f7" stroke-opacity="0.09" stroke-width="1"/><ellipse cx="600" cy="230" rx="280" ry="112" fill="none" stroke="#a855f7" stroke-opacity="0.08" stroke-width="1"/><ellipse cx="600" cy="230" rx="210" ry="84" fill="none" stroke="#a855f7" stroke-opacity="0.07" stroke-width="1"/><ellipse cx="600" cy="230" rx="140" ry="56" fill="none" stroke="#a855f7" stroke-opacity="0.06" stroke-width="1"/><ellipse cx="600" cy="230" rx="70" ry="28" fill="none" stroke="#a855f7" stroke-opacity="0.05" stroke-width="1"/>
  <ellipse class="g1 dr" cx="536" cy="278" rx="300" ry="200" fill="url(#glow1)" filter="url(#blur1)"/>
  <ellipse class="g2" cx="262" cy="72" rx="250" ry="180" fill="url(#glow2)" filter="url(#blur2)"/>
  <circle cx="97" cy="80" r="3" fill="#a855f7" fill-opacity="0.6"/>
  <circle cx="117" cy="65" r="2" fill="#00e0ff" fill-opacity="0.4"/>
  <circle cx="1111" cy="354" r="4" fill="#a855f7" fill-opacity="0.5"/>
  <line x1="168" y1="0" x2="232" y2="460" stroke="#a855f7" stroke-opacity="0.06" stroke-width="1"/>
  <line x1="872" y1="0" x2="618" y2="460" stroke="#00e0ff" stroke-opacity="0.06" stroke-width="1"/>
  <rect width="1200" height="460" fill="url(#fade)"/>
</svg>