<svg viewBox="0 0 1200 460" xmlns="http://www.w3.org/2000/svg" width="1200" height="460">
  <defs>
    <radialGradient id="bg1" cx="50%" cy="50%" r="70%"><stop offset="0%" stop-color="#00e0ff" stop-opacity="0.08"/><stop offset="100%" stop-color="#060810" stop-opacity="1"/></radialGradient>
    <radialGradient id="glow1" cx="50%" cy="50%" r="50%"><stop offset="0%" stop-color="#00e0ff" stop-opacity="0.18"/><stop offset="100%" stop-color="#00e0ff" stop-opacity="0"/></radialGradient>
    <radialGradient id="glow2" cx="50%" cy="50%" r="50%"><stop offset="0%" stop-color="#a855f7" stop-opacity="0.14"/><stop offset="100%" stop-color="#a855f7" stop-opacity="0"/></radialGradient>
    <filter id="blur1"><feGaussianBlur stdDeviation="40"/></filter>
    <filter id="blur2"><feGaussianBlur stdDeviation="60"/></filter>
    <linearGradient id="fade" x1="0%" y1="0%" x2="0%" y2="100%"><stop offset="0%" stop-color="#060810" stop-opacity="0.1"/><stop offset="100%" stop-color="#060810" stop-opacity="0.9"/></linearGradient>
    <style>@keyframes p1{0%,100%{opacity:.6}50%{opacity:1}}@keyframes p2{0%,100%{opacity:.4}50%{opacity:.8}}@keyframes dr{0%,100%{transform:translate(0,0)}50%{transform:translate(1px,-6px)}}.g1{animation:p1 5s ease-in-out infinite}.g2{animation:p2 4s ease-in-out infinite 0.53s}.dr{animation:dr 8s ease-in-out infinite}</style>
  </defs>
  <rect width="1200" height="460" fill="#060810"/>
  <rect width="1200" height="460" fill="url(#bg1)"/>
  <line x1="600" y1="230" x2="1300" y2="230" stroke="#00e0ff" stroke-opacity="0.05" stroke-width="1"/><line x1="600" y1="230" x2="1276.148078402348" y2="411.1733315717645" stroke="#00e0ff" stroke-opacity="0.05" stroke-width="1"/><line x1="600" y1="230" x2="1206.217782649107" y2="580" stroke="#00e0ff" stroke-opacity="0.05" stroke-width="1"/><line x1="600" y1="230" x2="1094.9747468305832" y2="724.9747468305832" stroke="#00e0ff" stroke-opacity="0.05" stroke-width="1"/><line x1="600" y1="230" x2="950" y2="836.217782649107" stroke="#00e0ff" stroke-opacity="0.05" stroke-width="1"/><line x1="600" y1="230" x2="781.1733315717645" y2="906.1480784023478" stroke="#00e0ff" stroke-opacity="0.05" stroke-width="1"/><line x1="600" y1="230" x2="600" y2="930" stroke="#00e0ff" stroke-opacity="0.05" stroke-width="1"/><line x1="600" y1="230" x2="418.8266684282354" y2="906.1480784023478" stroke="#00e0ff" stroke-opacity="0.05" stroke-width="1"/><line x1="600" y1="230" x2="250.00000000000017" y2="836.2177826491071" stroke="#00e0ff" stroke-opacity="0.05" stroke-width="1"/><line x1="600" y1="230" x2="105.02525316941677" y2="724.9747468305833" stroke="#00e0ff" stroke-opacity="0.05" stroke-width="1"/><line x1="600" y1="230" x2="-6.217782649107107" y2="580" stroke="#00e0ff" stroke-opacity="0.05" stroke-width="1"/><line x1="600" y1="230" x2="-76.14807840234778" y2="411.1733315717647" stroke="#00e0ff" stroke-opacity="0.05" stroke-width="1"/><line x1="600" y1="230" x2="-100" y2="230.00000000000009" stroke="#00e0ff" stroke-opacity="0.05" stroke-width="1"/><line x1="600" y1="230" x2="-76.14807840234789" y2="48.82666842823576" stroke="#00e0ff" stroke-opacity="0.05" stroke-width="1"/><line x1="600" y1="230" x2="-6.217782649106994" y2="-120.00000000000006" stroke="#00e0ff" stroke-opacity="0.05" stroke-width="1"/><line x1="600" y1="230" x2="105.0252531694166" y2="-264.97474683058323" stroke="#00e0ff" stroke-opacity="0.05" stroke-width="1"/><line x1="600" y1="230" x2="249.99999999999972" y2="-376.217782649107" stroke="#00e0ff" stroke-opacity="0.05" stroke-width="1"/><line x1="600" y1="230" x2="418.82666842823556" y2="-446.1480784023478" stroke="#00e0ff" stroke-opacity="0.05" stroke-width="1"/><line x1="600" y1="230" x2="599.9999999999999" y2="-470" stroke="#00e0ff" stroke-opacity="0.05" stroke-width="1"/><line x1="600" y1="230" x2="781.1733315717647" y2="-446.1480784023478" stroke="#00e0ff" stroke-opacity="0.05" stroke-width="1"/><line x1="600" y1="230" x2="950" y2="-376.217782649107" stroke="#00e0ff" stroke-opacity="0.05" stroke-width="1"/><line x1="600" y1="230" x2="1094.9747468305832" y2="-264.9747468305834" stroke="#00e0ff" stroke-opacity="0.05" stroke-width="1"/><line x1="600" y1="230" x2="1206.217782649107" y2="-120.00000000000028" stroke="#00e0ff" stroke-opacity="0.05" stroke-width="1"/><line x1="600" y1="230" x2="1276.148078402348" y2="48.82666842823551" stroke="#00e0ff" stroke-opacity="0.05" stroke-width="1"/>
  <ellipse class="g1 dr" cx="656" cy="113" rx="300" ry="200" fill="url(#glow1)" filter="url(#blur1)"/>
  <ellipse class="g2" cx="577" cy="234" rx="250" ry="180" fill="url(#glow2)" filter="url(#blur2)"/>
  <circle cx="103" cy="63" r="3" fill="#00e0ff" fill-opacity="0.6"/>
  <circle cx="123" cy="48" r="2" fill="#a855f7" fill-opacity="0.4"/>
  <circle cx="1132" cy="381" r="4" fill="#00e0ff" fill-opacity="0.5"/>
  <line x1="228" y1="0" x2="122" y2="460" stroke="#00e0ff" stroke-opacity="0.06" stroke-width="1"/>
  <line x1="1012" y1="0" x2="753" y2="460" stroke="#a855f7" stroke-opacity="0.06" stroke-width="1"/>
  <rect width="1200" height="460" fill="url(#fade)"/>
</svg>