<svg viewBox="0 0 1200 460" xmlns="http://www.w3.org/2000/svg" width="1200" height="460">
  <defs>
    <radialGradient id="bg1" cx="50%" cy="50%" r="70%"><stop offset="0%" stop-color="#00e0ff" stop-opacity="0.08"/><stop offset="100%" stop-color="#060810" stop-opacity="1"/></radialGradient>
    <radialGradient id="glow1" cx="50%" cy="50%" r="50%"><stop offset="0%" stop-color="#00e0ff" stop-opacity="0.18"/><stop offset="100%" stop-color="#00e0ff" stop-opacity="0"/></radialGradient>
    <radialGradient id="glow2" cx="50%" cy="50%" r="50%"><stop offset="0%" stop-color="#a855f7" stop-opacity="0.14"/><stop offset="100%" stop-color="#a855f7" stop-opacity="0"/></radialGradient>
    <filter id="blur1"><feGaussianBlur stdDeviation="40"/></filter>
    <filter id="blur2"><feGaussianBlur stdDeviation="60"/></filter>
    <linearGradient id="fade" x1="0%" y1="0%" x2="0%" y2="100%"><stop offset="0%" stop-color="#060810" stop-opacity="0.1"/><stop offset="100%" stop-color="#060810" stop-opacity="0.9"/></linearGradient>
    <style>@keyframes p1{0%,100%{opacity:.6}50%{opacity:1}}@keyframes p2{0%,100%{opacity:.4}50%{opacity:.8}}@keyframes dr{0%,100%{transform:translate(0,0)}50%{transform:translate(4px,2px)}}.g1{animation:p1 5s ease-in-out infinite}.g2{animation:p2 7s ease-in-out infinite 0.72s}.dr{animation:dr 7s ease-in-out infinite}</style>
  </defs>
  <rect width="1200" height="460" fill="#060810"/>
  <rect width="1200" height="460" fill="url(#bg1)"/>
  <path d="M 0 20 Q 30 0 60 20 Q 90 20 120 20 Q 150 3.552713678800501e-15 180 20 Q 210 -20 240 20 Q 270 -3.552713678800501e-15 300 20 Q 330 20 360 20 Q 390 7.105427357601002e-15 420 20 Q 450 -20 480 20 Q 510 -1.0658141036401503e-14 540 20 Q 570 20 600 20 Q 630 1.0658141036401503e-14 660 20 Q 690 -20 720 20 Q 750 -1.4210854715202004e-14 780 20 Q 810 20 840 20 Q 870 1.7763568394002505e-14 900 20 Q 930 -20 960 20 Q 990 -2.1316282072803006e-14 1020 20 Q 1050 20 1080 20 Q 1110 2.1316282072803006e-14 1140 20 Q 1170 -20 1200 20 Q 1230 -2.4868995751603507e-14 1260 20" fill="none" stroke="#00e0ff" stroke-opacity="0.08" stroke-width="1.5"/><path d="M 0 100 Q 30 72 60 100 Q 90 44 120 100 Q 150 72 180 100 Q 210 100 240 100 Q 270 72.00000000000001 300 100 Q 330 44 360 100 Q 390 71.99999999999999 420 100 Q 450 100 480 100 Q 510 72.00000000000001 540 100 Q 570 44 600 100 Q 630 71.99999999999999 660 100 Q 690 100 720 100 Q 750 72.00000000000003 780 100 Q 810 44 840 100 Q 870 71.99999999999997 900 100 Q 930 100 960 100 Q 990 72.00000000000003 1020 100 Q 1050 44 1080 100 Q 1110 71.99999999999997 1140 100 Q 1170 100 1200 100 Q 1230 72.00000000000014 1260 100" fill="none" stroke="#00e0ff" stroke-opacity="0.08" stroke-width="1.5"/><path d="M 0 180 Q 30 144 60 180 Q 90 180 120 180 Q 150 144 180 180 Q 210 108 240 180 Q 270 143.99999999999997 300 180 Q 330 180 360 180 Q 390 144.00000000000003 420 180 Q 450 108 480 180 Q 510 143.99999999999997 540 180 Q 570 180 600 180 Q 630 144.00000000000003 660 180 Q 690 108 720 180 Q 750 143.99999999999997 780 180 Q 810 180 840 180 Q 870 144.00000000000003 900 180 Q 930 108 960 180 Q 990 143.99999999999994 1020 180 Q 1050 180 1080 180 Q 1110 144.00000000000017 1140 180 Q 1170 108 1200 180 Q 1230 143.99999999999994 1260 180" fill="none" stroke="#00e0ff" stroke-opacity="0.08" stroke-width="1.5"/><path d="M 0 260 Q 30 216 60 260 Q 90 172 120 260 Q 150 216 180 260 Q 210 260 240 260 Q 270 216 300 260 Q 330 172 360 260 Q 390 215.99999999999994 420 260 Q 450 260 480 260 Q 510 216.00000000000006 540 260 Q 570 172 600 260 Q 630 215.99999999999994 660 260 Q 690 260 720 260 Q 750 216.00000000000006 780 260 Q 810 172 840 260 Q 870 215.99999999999994 900 260 Q 930 260 960 260 Q 990 216.00000000000023 1020 260 Q 1050 172 1080 260 Q 1110 215.99999999999994 1140 260 Q 1170 260 1200 260 Q 1230 215.9999999999999 1260 260" fill="none" stroke="#00e0ff" stroke-opacity="0.08" stroke-width="1.5"/><path d="M 0 340 Q 30 288 60 340 Q 90 340 120 340 Q 150 288.00000000000006 180 340 Q 210 236 240 340 Q 270 287.99999999999994 300 340 Q 330 340 360 340 Q 390 288.00000000000006 420 340 Q 450 236 480 340 Q 510 287.99999999999994 540 340 Q 570 340 600 340 Q 630 288.00000000000006 660 340 Q 690 236 720 340 Q 750 287.99999999999994 780 340 Q 810 340 840 340 Q 870 288.0000000000002 900 340 Q 930 236 960 340 Q 990 287.99999999999994 1020 340 Q 1050 340 1080 340 Q 1110 287.9999999999999 1140 340 Q 1170 236 1200 340 Q 1230 287.9999999999999 1260 340" fill="none" stroke="#00e0ff" stroke-opacity="0.08" stroke-width="1.5"/><path d="M 0 420 Q 30 360.00000000000006 60 420 Q 90 300 120 420 Q 150 359.99999999999994 180 420 Q 210 420 240 420 Q 270 360.00000000000006 300 420 Q 330 300 360 420 Q 390 359.99999999999994 420 420 Q 450 420 480 420 Q 510 360.00000000000006 540 420 Q 570 300 600 420 Q 630 359.99999999999994 660 420 Q 690 420 720 420 Q 750 360.0000000000003 780 420 Q 810 300 840 420 Q 870 359.9999999999999 900 420 Q 930 420 960 420 Q 990 359.9999999999999 1020 420 Q 1050 300 1080 420 Q 1110 359.9999999999999 1140 420 Q 1170 420 1200 420 Q 1230 360.00000000000034 1260 420" fill="none" stroke="#00e0ff" stroke-opacity="0.08" stroke-width="1.5"/>
  <ellipse class="g1 dr" cx="744" cy="272" rx="300" ry="200" fill="url(#glow1)" filter="url(#blur1)"/>
  <ellipse class="g2" cx="748" cy="136" rx="250" ry="180" fill="url(#glow2)" filter="url(#blur2)"/>
  <circle cx="107" cy="79" r="3" fill="#00e0ff" fill-opacity="0.6"/>
  <circle cx="127" cy="64" r="2" fill="#a855f7" fill-opacity="0.4"/>
  <circle cx="1143" cy="364" r="4" fill="#00e0ff" fill-opacity="0.5"/>
  <line x1="272" y1="0" x2="228" y2="460" stroke="#00e0ff" stroke-opacity="0.06" stroke-width="1"/>
  <line x1="1088" y1="0" x2="672" y2="460" stroke="#a855f7" stroke-opacity="0.06" stroke-width="1"/>
  <rect width="1200" height="460" fill="url(#fade)"/>
</svg>