<svg viewBox="0 0 1200 460" xmlns="http://www.w3.org/2000/svg" width="1200" height="460">
  <defs>
    <radialGradient id="bg1" cx="50%" cy="50%" r="70%"><stop offset="0%" stop-color="#00e0ff" stop-opacity="0.08"/><stop offset="100%" stop-color="#060810" stop-opacity="1"/></radialGradient>
    <radialGradient id="glow1" cx="50%" cy="50%" r="50%"><stop offset="0%" stop-color="#00e0ff" stop-opacity="0.18"/><stop offset="100%" stop-color="#00e0ff" stop-opacity="0"/></radialGradient>
    <radialGradient id="glow2" cx="50%" cy="50%" r="50%"><stop offset="0%" stop-color="#a855f7" stop-opacity="0.14"/><stop offset="100%" stop-color="#a855f7" stop-opacity="0"/></radialGradient>
    <filter id="blur1"><feGaussianBlur stdDeviation="40"/></filter>
    <filter id="blur2"><feGaussianBlur stdDeviation="60"/></filter>
    <linearGradient id="fade" x1="0%" y1="0%" x2="0%" y2="100%"><stop offset="0%" stop-color="#060810" stop-opacity="0.1"/><stop offset="100%" stop-color="#060810" stop-opacity="0.9"/></linearGradient>
    <style>@keyframes p1{0%,100%{opacity:.6}50%{opacity:1}}@keyframes p2{0%,100%{opacity:.4}50%{opacity:.8}}@keyframes dr{0%,100%{transform:translate(0,0)}50%{transform:translate(0px,4px)}}.g1{animation:p1 5s ease-in-out infinite}.g2{animation:p2 7s ease-in-out infinite 0.79s}.dr{animation:dr 10s ease-in-out infinite}</style>
  </defs>
  <rect width="1200" height="460" fill="#060810"/>
  <rect width="1200" height="460" fill="url(#bg1)"/>
  <polygon points="0,30 52,0 104,30 104,90 52,120 0,90" fill="none" stroke="#00e0ff" stroke-opacity="0.07" stroke-width="1"/><polygon points="130,30 182,0 234,30 234,90 182,120 130,90" fill="none" stroke="#00e0ff" stroke-opacity="0.07" stroke-width="1"/><polygon points="260,30 312,0 364,30 364,90 312,120 260,90" fill="none" stroke="#00e0ff" stroke-opacity="0.07" stroke-width="1"/><polygon points="390,30 442,0 494,30 494,90 442,120 390,90" fill="none" stroke="#00e0ff" stroke-opacity="0.07" stroke-width="1"/><polygon points="520,30 572,0 624,30 624,90 572,120 520,90" fill="none" stroke="#00e0ff" stroke-opacity="0.07" stroke-width="1"/><polygon points="650,30 702,0 754,30 754,90 702,120 650,90" fill="none" stroke="#00e0ff" stroke-opacity="0.07" stroke-width="1"/><polygon points="780,30 832,0 884,30 884,90 832,120 780,90" fill="none" stroke="#00e0ff" stroke-opacity="0.07" stroke-width="1"/><polygon points="910,30 962,0 1014,30 1014,90 962,120 910,90" fill="none" stroke="#00e0ff" stroke-opacity="0.07" stroke-width="1"/><polygon points="1040,30 1092,0 1144,30 1144,90 1092,120 1040,90" fill="none" stroke="#00e0ff" stroke-opacity="0.07" stroke-width="1"/><polygon points="1170,30 1222,0 1274,30 1274,90 1222,120 1170,90" fill="none" stroke="#00e0ff" stroke-opacity="0.07" stroke-width="1"/><polygon points="65,130 117,100 169,130 169,190 117,220 65,190" fill="none" stroke="#00e0ff" stroke-opacity="0.07" stroke-width="1"/><polygon points="195,130 247,100 299,130 299,190 247,220 195,190" fill="none" stroke="#00e0ff" stroke-opacity="0.07" stroke-width="1"/><polygon points="325,130 377,100 429,130 429,190 377,220 325,190" fill="none" stroke="#00e0ff" stroke-opacity="0.07" stroke-width="1"/><polygon points="455,130 507,100 559,130 559,190 507,220 455,190" fill="none" stroke="#00e0ff" stroke-opacity="0.07" stroke-width="1"/><polygon points="585,130 637,100 689,130 689,190 637,220 585,190" fill="none" stroke="#00e0ff" stroke-opacity="0.07" stroke-width="1"/><polygon points="715,130 767,100 819,130 819,190 767,220 715,190" fill="none" stroke="#00e0ff" stroke-opacity="0.07" stroke-width="1"/><polygon points="845,130 897,100 949,130 949,190 897,220 845,190" fill="none" stroke="#00e0ff" stroke-opacity="0.07" stroke-width="1"/><polygon points="975,130 1027,100 1079,130 1079,190 1027,220 975,190" fill="none" stroke="#00e0ff" stroke-opacity="0.07" stroke-width="1"/><polygon points="1105,130 1157,100 1209,130 1209,190 1157,220 1105,190" fill="none" stroke="#00e0ff" stroke-opacity="0.07" stroke-width="1"/><polygon points="1235,130 1287,100 1339,130 1339,190 1287,220 1235,190" fill="none" stroke="#00e0ff" stroke-opacity="0.07" stroke-width="1"/><polygon points="0,230 52,200 104,230 104,290 52,320 0,290" fill="none" stroke="#00e0ff" stroke-opacity="0.07" stroke-width="1"/><polygon points="130,230 182,200 234,230 234,290 182,320 130,290" fill="none" stroke="#00e0ff" stroke-opacity="0.07" stroke-width="1"/><polygon points="260,230 312,200 364,230 364,290 312,320 260,290" fill="none" stroke="#00e0ff" stroke-opacity="0.07" stroke-width="1"/><polygon points="390,230 442,200 494,230 494,290 442,320 390,290" fill="none" stroke="#00e0ff" stroke-opacity="0.07" stroke-width="1"/><polygon points="520,230 572,200 624,230 624,290 572,320 520,290" fill="none" stroke="#00e0ff" stroke-opacity="0.07" stroke-width="1"/><polygon points="650,230 702,200 754,230 754,290 702,320 650,290" fill="none" stroke="#00e0ff" stroke-opacity="0.07" stroke-width="1"/><polygon points="780,230 832,200 884,230 884,290 832,320 780,290" fill="none" stroke="#00e0ff" stroke-opacity="0.07" stroke-width="1"/><polygon points="910,230 962,200 1014,230 1014,290 962,320 910,290" fill="none" stroke="#00e0ff" stroke-opacity="0.07" stroke-width="1"/><polygon points="1040,230 1092,200 1144,230 1144,290 1092,320 1040,290" fill="none" stroke="#00e0ff" stroke-opacity="0.07" stroke-width="1"/><polygon points="1170,230 1222,200 1274,230 1274,290 1222,320 1170,290" fill="none" stroke="#00e0ff" stroke-opacity="0.07" stroke-width="1"/><polygon points="65,330 117,300 169,330 169,390 117,420 65,390" fill="none" stroke="#00e0ff" stroke-opacity="0.07" stroke-width="1"/><polygon points="195,330 247,300 299,330 299,390 247,420 195,390" fill="none" stroke="#00e0ff" stroke-opacity="0.07" stroke-width="1"/><polygon points="325,330 377,300 429,330 429,390 377,420 325,390" fill="none" stroke="#00e0ff" stroke-opacity="0.07" stroke-width="1"/><polygon points="455,330 507,300 559,330 559,390 507,420 455,390" fill="none" stroke="#00e0ff" stroke-opacity="0.07" stroke-width="1"/><polygon points="585,330 637,300 689,330 689,390 637,420 585,390" fill="none" stroke="#00e0ff" stroke-opacity="0.07" stroke-width="1"/><polygon points="715,330 767,300 819,330 819,390 767,420 715,390" fill="none" stroke="#00e0ff" stroke-opacity="0.07" stroke-width="1"/><polygon points="845,330 897,300 949,330 949,390 897,420 845,390" fill="none" stroke="#00e0ff" stroke-opacity="0.07" stroke-width="1"/><polygon points="975,330 1027,300 1079,330 1079,390 1027,420 975,390" fill="none" stroke="#00e0ff" stroke-opacity="0.07" stroke-width="1"/><polygon points="1105,330 1157,300 1209,330 1209,390 1157,420 1105,390" fill="none" stroke="#00e0ff" stroke-opacity="0.07" stroke-width="1"/><polygon points="1235,330 1287,300 1339,330 1339,390 1287,420 1235,390" fill="none" stroke="#00e0ff" stroke-opacity="0.07" stroke-width="1"/><polygon points="0,430 52,400 104,430 104,490 52,520 0,490" fill="none" stroke="#00e0ff" stroke-opacity="0.07" stroke-width="1"/><polygon points="130,430 182,400 234,430 234,490 182,520 130,490" fill="none" stroke="#00e0ff" stroke-opacity="0.07" stroke-width="1"/><polygon points="260,430 312,400 364,430 364,490 312,520 260,490" fill="none" stroke="#00e0ff" stroke-opacity="0.07" stroke-width="1"/><polygon points="390,430 442,400 494,430 494,490 442,520 390,490" fill="none" stroke="#00e0ff" stroke-opacity="0.07" stroke-width="1"/><polygon points="520,430 572,400 624,430 624,490 572,520 520,490" fill="none" stroke="#00e0ff" stroke-opacity="0.07" stroke-width="1"/><polygon points="650,430 702,400 754,430 754,490 702,520 650,490" fill="none" stroke="#00e0ff" stroke-opacity="0.07" stroke-width="1"/><polygon points="780,430 832,400 884,430 884,490 832,520 780,490" fill="none" stroke="#00e0ff" stroke-opacity="0.07" stroke-width="1"/><polygon points="910,430 962,400 1014,430 1014,490 962,520 910,490" fill="none" stroke="#00e0ff" stroke-opacity="0.07" stroke-width="1"/><polygon points="1040,430 1092,400 1144,430 1144,490 1092,520 1040,490" fill="none" stroke="#00e0ff" stroke-opacity="0.07" stroke-width="1"/><polygon points="1170,430 1222,400 1274,430 1274,490 1222,520 1170,490" fill="none" stroke="#00e0ff" stroke-opacity="0.07" stroke-width="1"/>
  <ellipse class="g1 dr" cx="608" cy="299" rx="300" ry="200" fill="url(#glow1)" filter="url(#blur1)"/>
  <ellipse class="g2" cx="811" cy="385" rx="250" ry="180" fill="url(#glow2)" filter="url(#blur2)"/>
  <circle cx="100" cy="82" r="3" fill="#00e0ff" fill-opacity="0.6"/>
  <circle cx="120" cy="67" r="2" fill="#a855f7" fill-opacity="0.4"/>
  <circle cx="1147" cy="406" r="4" fill="#00e0ff" fill-opacity="0.5"/>
  <line x1="204" y1="0" x2="246" y2="460" stroke="#00e0ff" stroke-opacity="0.06" stroke-width="1"/>
  <line x1="1116" y1="0" x2="879" y2="460" stroke="#a855f7" stroke-opacity="0.06" stroke-width="1"/>
  <rect width="1200" height="460" fill="url(#fade)"/>
</svg>