<svg viewBox="0 0 1200 460" xmlns="http://www.w3.org/2000/svg" width="1200" height="460">
  <defs>
    <radialGradient id="bg1" cx="50%" cy="50%" r="70%"><stop offset="0%" stop-color="#00e0ff" stop-opacity="0.08"/><stop offset="100%" stop-color="#060810" stop-opacity="1"/></radialGradient>
    <radialGradient id="glow1" cx="50%" cy="50%" r="50%"><stop offset="0%" stop-color="#00e0ff" stop-opacity="0.18"/><stop offset="100%" stop-color="#00e0ff" stop-opacity="0"/></radialGradient>
    <radialGradient id="glow2" cx="50%" cy="50%" r="50%"><stop offset="0%" stop-color="#a855f7" stop-opacity="0.14"/><stop offset="100%" stop-color="#a855f7" stop-opacity="0"/></radialGradient>
    <filter id="blur1"><feGaussianBlur stdDeviation="40"/></filter>
    <filter id="blur2"><feGaussianBlur stdDeviation="60"/></filter>
    <linearGradient id="fade" x1="0%" y1="0%" x2="0%" y2="100%"><stop offset="0%" stop-color="#060810" stop-opacity="0.1"/><stop offset="100%" stop-color="#060810" stop-opacity="0.9"/></linearGradient>
    <style>@keyframes p1{0%,100%{opacity:.6}50%{opacity:1}}@keyframes p2{0%,100%{opacity:.4}50%{opacity:.8}}@keyframes dr{0%,100%{transform:translate(0,0)}50%{transform:translate(-5px,-3px)}}.g1{animation:p1 4s ease-in-out infinite}.g2{animation:p2 5s ease-in-out infinite 0.67s}.dr{animation:dr 10s ease-in-out infinite}</style>
  </defs>
  <rect width="1200" height="460" fill="#060810"/>
  <rect width="1200" height="460" fill="url(#bg1)"/>
  <line x1="120" y1="80" x2="280" y2="160" stroke="#00e0ff" stroke-opacity="0.1" stroke-width="1"/><line x1="280" y1="160" x2="500" y2="60" stroke="#00e0ff" stroke-opacity="0.1" stroke-width="1"/><line x1="500" y1="60" x2="680" y2="200" stroke="#00e0ff" stroke-opacity="0.1" stroke-width="1"/><line x1="680" y1="200" x2="820" y2="90" stroke="#00e0ff" stroke-opacity="0.1" stroke-width="1"/><line x1="820" y1="90" x2="950" y2="180" stroke="#00e0ff" stroke-opacity="0.1" stroke-width="1"/><line x1="950" y1="180" x2="1080" y2="100" stroke="#00e0ff" stroke-opacity="0.1" stroke-width="1"/><line x1="280" y1="160" x2="350" y2="320" stroke="#00e0ff" stroke-opacity="0.1" stroke-width="1"/><line x1="680" y1="200" x2="600" y2="380" stroke="#00e0ff" stroke-opacity="0.1" stroke-width="1"/><line x1="950" y1="180" x2="850" y2="340" stroke="#00e0ff" stroke-opacity="0.1" stroke-width="1"/><line x1="350" y1="320" x2="600" y2="380" stroke="#00e0ff" stroke-opacity="0.1" stroke-width="1"/><line x1="600" y1="380" x2="850" y2="340" stroke="#00e0ff" stroke-opacity="0.1" stroke-width="1"/><circle cx="120" cy="80" r="4" fill="#00e0ff" fill-opacity="0.35"/><circle cx="120" cy="80" r="8" fill="#00e0ff" fill-opacity="0.08"/><circle cx="280" cy="160" r="4" fill="#00e0ff" fill-opacity="0.35"/><circle cx="280" cy="160" r="8" fill="#00e0ff" fill-opacity="0.08"/><circle cx="500" cy="60" r="4" fill="#00e0ff" fill-opacity="0.35"/><circle cx="500" cy="60" r="8" fill="#00e0ff" fill-opacity="0.08"/><circle cx="680" cy="200" r="4" fill="#00e0ff" fill-opacity="0.35"/><circle cx="680" cy="200" r="8" fill="#00e0ff" fill-opacity="0.08"/><circle cx="820" cy="90" r="4" fill="#00e0ff" fill-opacity="0.35"/><circle cx="820" cy="90" r="8" fill="#00e0ff" fill-opacity="0.08"/><circle cx="950" cy="180" r="4" fill="#00e0ff" fill-opacity="0.35"/><circle cx="950" cy="180" r="8" fill="#00e0ff" fill-opacity="0.08"/><circle cx="1080" cy="100" r="4" fill="#00e0ff" fill-opacity="0.35"/><circle cx="1080" cy="100" r="8" fill="#00e0ff" fill-opacity="0.08"/><circle cx="350" cy="320" r="4" fill="#00e0ff" fill-opacity="0.35"/><circle cx="350" cy="320" r="8" fill="#00e0ff" fill-opacity="0.08"/><circle cx="600" cy="380" r="4" fill="#00e0ff" fill-opacity="0.35"/><circle cx="600" cy="380" r="8" fill="#00e0ff" fill-opacity="0.08"/><circle cx="850" cy="340" r="4" fill="#00e0ff" fill-opacity="0.35"/><circle cx="850" cy="340" r="8" fill="#00e0ff" fill-opacity="0.08"/>
  <ellipse class="g1 dr" cx="384" cy="167" rx="300" ry="200" fill="url(#glow1)" filter="url(#blur1)"/>
  <ellipse class="g2" cx="703" cy="370" rx="250" ry="180" fill="url(#glow2)" filter="url(#blur2)"/>
  <circle cx="89" cy="69" r="3" fill="#00e0ff" fill-opacity="0.6"/>
  <circle cx="109" cy="54" r="2" fill="#a855f7" fill-opacity="0.4"/>
  <circle cx="1140" cy="403" r="4" fill="#00e0ff" fill-opacity="0.5"/>
  <line x1="92" y1="0" x2="158" y2="460" stroke="#00e0ff" stroke-opacity="0.06" stroke-width="1"/>
  <line x1="1068" y1="0" x2="867" y2="460" stroke="#a855f7" stroke-opacity="0.06" stroke-width="1"/>
  <rect width="1200" height="460" fill="url(#fade)"/>
</svg>